<svg xmlns="http://www.w3.org/2000/svg" version="1.1" xmlns:xlink="http://www.w3.org/1999/xlink" xmlns:svgjs="http://svgjs.dev/svgjs" width="100%" height="100%" viewBox="0 0 1000 600"><rect width="1000" height="600" x="0" y="0" fill="white"/><g><circle r="166.66666666666666" cx="335.9550577799479" cy="358.17726771829894" fill="#3c1a5b" transform="matrix(0.7383849487727415,0,0,0.7383849487727415,0,35.52729223694837)"/><path d="M216.54981489207148 376.7928041313371L216.54981489207148 376.7928041313371Q216.54981489207148 360.5965673507503 222.73261067553202 344.7363520801341Q228.8818043079955 328.9097389605149 240.5081485529811 318.4930721514238L240.5081485529811 318.4930721514238Q243.39793353872898 302.76726548479587 255.62911650166183 292.989039544649Q267.8602994645946 283.17721145350504 290.5753535386127 283.17721145350504Q313.32400976362794 283.17721145350504 327.0000852194347 300.95274933095413Q340.6761606752415 318.72828720840323 340.6761606752415 347.29011555591126L340.6761606752415 347.29011555591126Q340.6761606752415 365.905707208287 335.0982036097282 382.6059762538299L335.0982036097282 382.6059762538299Q346.2205155897577 378.7417288891671 355.2930963589662 372.82775031368317Q364.36567712817464 366.880169587202 364.6344943361511 366.880169587202L364.6344943361511 366.880169587202Q367.2890642649195 366.880169587202 367.2890642649195 370.0387717809265L367.2890642649195 370.0387717809265Q367.2890642649195 372.6933417096948 355.6627200199339 380.3210299860293Q344.0699779259454 387.94871826236385 331.7043863590243 391.0737183050911L331.7043863590243 391.0737183050911Q322.7662141938041 410.66377233638195 306.30116020524076 421.92049292039974Q289.8697083676743 433.17721350441764 266.51621342471196 433.17721350441764Q243.1627184817495 433.17721350441764 229.8562666869105 417.585815441778Q216.54981489207148 401.9608152281412 216.54981489207148 376.7928041313371ZM318.6667517721618 385.5293633905749L318.6667517721618 385.5293633905749Q321.79175181488915 374.6422664675248 321.79175181488915 361.33581467268573L321.79175181488915 361.33581467268573Q321.79175181488915 332.7739863251778 311.03906349582735 312.94871723690756Q300.2527730257684 293.08984599764017 280.42750393749816 293.08984599764017L280.42750393749816 293.08984599764017Q271.95976188623695 293.08984599764017 263.626428438964 297.8277492882268Q255.25949284069407 302.5320504278164 251.6304605330107 310.5293623651186L251.6304605330107 310.5293623651186Q264.23126715691126 303.5065128067314 277.1680952907825 303.5065128067314Q290.10492342465386 303.5065128067314 290.10492342465386 307.13554511441475L290.10492342465386 307.13554511441475Q290.10492342465386 309.3196849292242 288.4248158748004 310.5293623651186Q286.71110617394993 311.73903980101306 285.03099862409647 311.73903980101306L285.03099862409647 311.73903980101306Q264.23126715691126 311.73903980101306 249.71513792617782 325.7511367667905L249.71513792617782 325.7511367667905Q251.6304605330107 350.44871774963565 271.3549231682897 367.9890405701053Q291.0793858035688 385.5293633905749 318.6667517721618 385.5293633905749ZM275.5887941939203 420.84522408849364L275.5887941939203 420.84522408849364Q304.6210526553873 420.84522408849364 315.97857969239635 393.49307317688L315.97857969239635 393.49307317688Q286.94632123092947 393.49307317688 265.5417510457969 378.27129877520815Q244.13718086066447 363.0159222225392 240.27293349600163 338.3519433906911L240.27293349600163 338.3519433906911Q233.48529899459385 351.15436292057404 233.48529899459385 367.1153846441815L233.48529899459385 367.1153846441815Q233.48529899459385 389.15839569825823 245.7164819575267 404.98500881787743Q257.9140627694625 420.84522408849364 275.5887941939203 420.84522408849364ZM433.8213232391146 319.7027495873183L433.8213232391146 319.7027495873183L435.03100067500907 313.4191473508665Q434.0565382960941 300.34791061300695 417.35626925055124 300.34791061300695L417.35626925055124 300.34791061300695Q407.67884976339553 300.34791061300695 400.5551937520171 307.2363515674059Q393.3979355896415 314.15839467280193 393.3979355896415 321.75248079813946Q393.3979355896415 329.3801690744739 399.81594643008157 335.0589325929784Q406.2339572705216 340.77129826248006 415.30653803972996 345.2403843450901Q424.3791188089384 349.7094704277001 433.4516995781469 354.9178038322458Q442.52428034735533 360.12613723679135 448.9422911877954 368.325062080076Q455.3603020282353 376.5575890743577 455.3603020282353 386.9742558834488L455.3603020282353 386.9742558834488Q455.3603020282353 408.5132346725695 438.424817925713 420.84522408849364Q421.4893338231906 433.17721350441764 401.86567764090273 433.17721350441764Q382.2756236096119 433.17721350441764 369.2043868717524 426.0535574930392Q356.16675228489 418.8962993306636 356.16675228489 404.3801700999302L356.16675228489 404.3801700999302Q356.16675228489 396.6516753706045 361.4758921424267 390.3680731341527Q366.7850319999635 384.05086874670394 376.73126869509565 384.05086874670394L376.73126869509565 384.05086874670394Q380.59551605975855 384.05086874670394 383.72051610248593 386.23500856151327Q386.8791182962103 388.4191483763227 387.61836561814584 392.0481806840062L387.61836561814584 392.0481806840062Q387.61836561814584 395.67721299168954 383.25008598852696 395.67721299168954L383.25008598852696 395.67721299168954Q375.0175589942452 395.67721299168954 375.0175589942452 402.7000625500767L375.0175589942452 402.7000625500767Q375.2527740512247 410.66377233638195 382.6452472705797 417.2161917808103Q390.0377204899347 423.7350090742415 403.4449787377649 423.7350090742415Q416.88583913659227 423.7350090742415 426.4288500197596 414.56162185204187Q436.005463053924 405.35463247884513 436.005463053924 392.2833957409856L436.005463053924 392.2833957409856Q436.005463053924 383.580438632745 429.4530436094958 376.5575890743577Q422.9342263160645 369.5347395159704 413.72723694286776 364.5952233194014Q404.55384972066815 359.62210497183526 395.21245174348326 354.548180171278Q385.90465591729526 349.4742553707207 379.38583862386406 342.216190755354Q372.83341917943574 334.95812613998726 372.83341917943574 325.7511367667905L372.83341917943574 325.7511367667905Q372.83341917943574 309.5548999862036 386.74470969222205 299.877480499048Q400.65600020500824 290.20006101189233 418.3307316294662 290.20006101189233L418.3307316294662 290.20006101189233Q430.1922909314312 290.20006101189233 439.8697104185869 295.0387707554702Q449.5471299057425 299.877480499048 449.78234496272205 309.7901150431831L449.78234496272205 309.7901150431831Q449.78234496272205 315.60328716567597 446.8925599769742 319.46753453033875Q443.96917284022925 323.33178189500165 439.02965664366013 323.33178189500165Q434.0565382960941 323.33178189500165 433.8213232391146 319.7027495873183Z " fill="#fff748" transform="matrix(0.7383849487727415,0,0,0.7383849487727415,0,35.52729223694837)"/><path d="M664.2427520621558 352.1231636370205Q664.2427520621558 377.10542867842094 667.0091016834352 377.10542867842094Q669.7541716922432 377.10542867842094 674.4356864359469 370.7428245494782Q679.1172011796506 364.3802204205356 683.6284790235832 354.35752294651536Q688.1397568675159 344.31354586002385 689.1398986536706 344.31354586002385Q690.1400404398255 344.31354586002385 690.1400404398255 345.547763383364L690.1400404398255 345.547763383364Q690.1400404398255 349.82496549011137 684.9265353843373 361.1669989373571L684.9265353843373 361.1669989373571Q673.7547388368627 384.9150464554175 664.8598608238257 384.9150464554175L664.8598608238257 384.9150464554175Q661.4976820533476 384.9150464554175 658.7313324320681 384.0638619565623Q655.9649828107888 383.23395707017846 655.3691536615901 382.46789102120874L655.3691536615901 382.46789102120874Q653.8370215636508 380.6165647361987 653.8370215636508 368.97661671435367L653.8370215636508 368.97661671435367Q653.8370215636508 341.3982389514448 655.6670682361895 324.24687129951224L655.6670682361895 324.24687129951224Q646.7721902231525 332.9715124127782 639.4307239205262 344.16458857272426L639.4307239205262 344.16458857272426Q642.6439454037047 356.4216453562393 642.6439454037047 365.3803622066904Q642.6439454037047 374.3390790571415 639.1966481833412 379.2546695380304Q635.7493509629775 384.1489804064478 630.5358459074893 384.1489804064478L630.5358459074893 384.1489804064478Q624.2583602284321 384.1489804064478 624.2583602284321 372.04088091023243L624.2583602284321 372.04088091023243Q624.2583602284321 363.76311165886545 630.85504009456 350.1441596771821L630.85504009456 350.1441596771821Q627.7907758986813 339.41923499160646 621.960162081523 329.14118216792974L621.960162081523 329.14118216792974Q619.5130066473143 343.07932833668383 614.4484588791258 357.6345832671079Q609.4051907234087 372.18983819753214 604.0427283806208 379.3185083754445Q598.680266037833 386.44717855335693 591.3175201227353 386.44717855335693L591.3175201227353 386.44717855335693Q585.9550577799477 386.44717855335693 585.9550577799477 382.31893373390915L585.9550577799477 382.31893373390915Q585.9550577799477 378.9354753509597 588.2532559268567 377.55230054031995Q590.5514540737657 376.1904053421516 593.70083671953 375.488178130596Q596.828939752823 374.8072305315119 597.7439630890923 373.89220719524246L597.7439630890923 373.89220719524246Q603.7235341935501 367.59344190371394 609.0221576989238 352.4423578240911Q614.2995015918261 337.269994131997 616.7466570260349 321.3315643909332L616.7466570260349 321.3315643909332Q610.1712567723783 312.7558805649669 610.1712567723783 308.5425172956336Q610.1712567723783 304.32915402630033 612.384336469402 301.11593254312186Q614.5974161664254 297.8814314474721 619.6619639346139 297.8814314474721L619.6619639346139 297.8814314474721Q621.1940960325534 297.8814314474721 622.2580766561224 301.7968801422061Q623.3433368921627 305.71232883694006 623.3433368921627 309.98953094368744L623.3433368921627 309.98953094368744Q632.6850867670988 323.6297625378422 637.5793976355162 338.1850174682663L637.5793976355162 338.1850174682663Q646.1763610739539 324.09791401221264 657.1992003341288 312.1387718032969L657.1992003341288 312.1387718032969Q661.9445539152467 283.1772192297483 668.2220395943039 283.1772192297483L668.2220395943039 283.1772192297483Q670.3712804539133 283.1772192297483 672.7545970507078 286.3904407129267Q675.1166340350311 289.6249418085765 675.1166340350311 292.9871205790546L675.1166340350311 292.9871205790546Q675.1166340350311 303.41413069003096 666.0940783471658 314.13905537560663L666.0940783471658 314.13905537560663Q664.2427520621558 327.1621782080914 664.2427520621558 352.1231636370205ZM632.3871721924994 356.7195599308386L632.3871721924994 356.7195599308386Q628.7057992349506 364.8483718949059 628.7057992349506 371.2109760238486Q628.7057992349506 377.55230054031995 630.2379313328901 377.55230054031995Q631.7700634308294 377.55230054031995 632.5361294797991 373.80708874535696Q633.3021955287687 370.0618769503941 633.3021955287687 365.9123525184749Q633.3021955287687 361.7841076990271 632.3871721924994 356.7195599308386ZM703.0142059850107 304.94626278797034L703.0142059850107 304.94626278797034Q703.0142059850107 302.7970219283609 701.9289457489701 302.7970219283609L701.9289457489701 302.7970219283609Q699.4817903147616 302.7970219283609 696.3536872814686 306.39327643602417Q693.2043046357044 309.98953094368744 692.1403240121354 317.5012341460847L692.1403240121354 317.5012341460847Q691.9700871123644 319.18232353132373 690.8209880389097 320.48037989207796Q689.6718889654553 321.7997158653035 688.4589510545866 321.7997158653035L688.4589510545866 321.7997158653035Q686.6076247695764 321.7997158653035 686.6076247695764 318.73545166942483Q686.6076247695764 315.67118747354596 689.6718889654553 310.07464939357294Q692.736153161334 304.4781113136 697.7155824796369 299.88171501978184Q702.69501179794 295.28531872596363 707.461644991529 295.28531872596363L707.461644991529 295.28531872596363Q712.9730646216167 295.28531872596363 712.8879461717311 304.0950782891151Q712.824107334317 312.9048378522666 710.9727810493068 329.75829092959975Q709.1427343767682 346.611744006933 709.1427343767682 355.0384705455996L709.1427343767682 355.0384705455996Q709.1427343767682 376.4883199167509 717.1013094410644 376.4883199167509L717.1013094410644 376.4883199167509Q722.9319232582227 376.4883199167509 730.6564225853338 365.6144379438756Q738.4022015249161 354.7405559710003 742.3814890570643 343.39852252375454L742.3814890570643 343.39852252375454Q745.445753252943 309.98953094368744 747.1268426381821 300.34986649415214L747.1268426381821 300.34986649415214Q747.4460368252528 298.96669168351247 751.8934758317712 295.583233300563Q756.3196352258183 292.22105453008487 758.7029518226129 292.22105453008487Q761.0862684194074 292.22105453008487 761.0862684194074 299.4135635454114L761.0862684194074 299.4135635454114Q761.0862684194074 307.84029008407805 759.5541363214681 313.96881847583563L759.5541363214681 313.96881847583563Q755.404611889549 329.75829092959975 754.3406312659799 334.05677264881854L754.3406312659799 334.05677264881854Q752.4893049809698 346.3138294323336 751.7232389320002 368.82765942705396L751.7232389320002 368.82765942705396Q758.4688760854276 365.2952437568049 763.3844665663166 365.2952437568049L763.3844665663166 365.2952437568049Q765.2145132388553 365.2952437568049 765.2145132388553 366.6145797300304Q765.2145132388553 367.91263609078464 763.3844665663166 368.67870213975436L763.3844665663166 368.67870213975436Q757.0857012747881 370.6577060995927 751.4253243574008 374.3390790571415L751.4253243574008 374.3390790571415Q751.4253243574008 408.5141366861783 746.7438096136971 420.83503230710744Q742.0835744824649 433.177207540508 726.762253503071 433.177207540508L726.762253503071 433.177207540508Q709.9088004257378 433.177207540508 709.9088004257378 418.9198671846832L709.9088004257378 418.9198671846832Q709.9088004257378 408.3651793988786 718.1014512272193 397.25722168881805Q726.2941020287008 386.1492639787575 740.083290910155 376.3393626294512L740.083290910155 376.3393626294512Q740.5514423845254 366.6784185674446 741.3175084334953 355.6555793072696L741.3175084334953 355.6555793072696Q735.1889800417378 367.76367880348494 727.5921583894549 376.3393626294512Q720.0166163496435 384.9150464554175 713.2071403588018 384.9150464554175Q706.3763847554887 384.9150464554175 702.3970972233406 378.10557046457575Q698.4178096911926 371.2748148612627 698.4178096911926 359.71998528930317Q698.4178096911926 348.14387610487233 700.7160078381016 330.7584327157547Q703.0142059850107 313.3729893266369 703.0142059850107 304.94626278797034ZM739.6364190482561 382.76580559580816Q730.8904983225189 389.2135281746363 725.6131544296165 398.1722450250875Q720.3145309242427 407.13096187553856 720.3145309242427 413.9404378663803Q720.3145309242427 420.77119346969334 722.9319232582227 424.2184906900569Q725.5280359797309 427.6657879104206 728.9114943626805 427.6657879104206L728.9114943626805 427.6657879104206Q733.6568479437983 427.6657879104206 736.1891218278924 417.4728535366294Q738.7001160995153 407.27991916283827 739.6364190482561 382.76580559580816L739.6364190482561 382.76580559580816ZM800.453551491461 336.5039280830273L800.453551491461 336.5039280830273Q802.1346408767001 334.50364451071755 805.8160138342489 331.3755414774247Q809.4973867917977 328.2261588316604 811.646627651407 328.2261588316604Q813.7745888985451 328.2261588316604 813.7745888985451 334.26956877353234Q813.7745888985451 340.3342583278758 810.5613674153667 346.1435925325626L810.5613674153667 346.1435925325626Q809.9442586536966 348.90994215384205 809.6463440790974 354.12344720933027L809.6463440790974 354.12344720933027Q814.0937830856158 342.0153477131148 818.5412220921344 335.8868193213573Q822.9673814861815 329.75829092959975 829.3299856151241 329.75829092959975Q835.6925897440669 329.75829092959975 840.4379433251847 335.5037862968725Q845.1832969063025 341.2492816641451 845.1832969063025 353.59145689754575Q845.1832969063025 365.9123525184749 838.2248636281611 375.4243392931819Q831.2451507375483 384.9150464554175 819.9031172903026 384.9150464554175L819.9031172903026 384.9150464554175Q814.0937830856158 384.9150464554175 808.114211981158 380.6165647361987L808.114211981158 380.6165647361987Q808.114211981158 409.897311496818 804.7520332106799 425.21863247621184L804.7520332106799 425.21863247621184Q804.4328390236092 426.58052767438016 800.6876272286463 429.87886760744414Q796.9211358212119 433.177207540508 795.1762075985587 433.177207540508Q793.4099997634341 433.177207540508 792.6439337144645 430.73005210629935Q791.8778676654947 428.2828966720906 791.8778676654947 426.13365581248115L791.8778676654947 426.13365581248115Q791.8778676654947 410.34418335871703 798.3043106318516 385.5321552170875L798.3043106318516 385.5321552170875Q799.389570867892 371.1258575739631 799.772603892377 353.97448992203056Q800.1556369168618 336.8018426576266 800.453551491461 336.5039280830273ZM820.8394202390434 379.40362682533L820.8394202390434 379.40362682533Q825.2655796330905 379.40362682533 830.0322128266796 373.18997998368695Q834.7775664077974 366.99761275451533 834.7775664077974 357.86865900429314Q834.7775664077974 348.76098486654234 832.2452925237033 343.31340407386904Q829.7130186396089 337.887102893667 825.4358165328615 337.887102893667L825.4358165328615 337.887102893667Q818.073070617764 337.887102893667 808.7313207428281 368.35950795268366L808.7313207428281 368.35950795268366Q808.4121265557574 372.65798967190244 808.4121265557574 375.1051451061112L808.4121265557574 375.1051451061112Q812.710608274976 379.40362682533 820.8394202390434 379.40362682533ZM898.8079203341808 350.9102257261518L898.8079203341808 350.9102257261518Q904.9364487259384 348.90994215384205 907.319765322733 347.4629285057882Q909.7030819195274 345.9946352452629 910.9160198303962 345.2285691962933L910.9160198303962 345.2285691962933L912.7673461154063 344.16458857272426Q913.5334121643759 343.69643709835384 913.9802840262751 343.69643709835384L913.9802840262751 343.69643709835384Q915.2145015496151 343.69643709835384 915.2145015496151 345.07961190899357Q915.2145015496151 346.4627867196333 910.4691479684973 349.91008393999687Q905.702514774908 353.35738116036055 898.6589630468811 356.1024511691686L898.6589630468811 356.1024511691686Q897.5949824233121 368.97661671435367 890.5514306952853 376.9564713911212Q883.4865993547869 384.9150464554175 870.4634765223022 384.9150464554175L870.4634765223022 384.9150464554175Q860.9727693600666 384.9150464554175 855.9082215918781 377.33950441560614Q850.8649534361609 369.7426827633234 850.8649534361609 359.54974838953217Q850.8649534361609 349.37809362821235 856.9083633780331 340.3342583278758Q862.9730529323763 331.2904230275392 872.4637600946121 331.2904230275392L872.4637600946121 331.2904230275392Q876.7622418138308 328.2261588316604 882.6566944684032 328.2261588316604Q888.5511471229754 328.2261588316604 893.6156948911639 334.50364451071755Q898.6589630468811 340.7811301897748 898.8079203341808 350.9102257261518ZM888.8490616975748 358.71984350314835L888.8490616975748 358.71984350314835L883.3376420674874 359.01775807774766Q876.2940903394604 359.01775807774766 871.3997794710428 354.8043948084144Q866.484188990154 350.5910315390811 866.484188990154 345.547763383364Q866.484188990154 340.4832156151755 868.1652783753932 336.8018426576266L868.1652783753932 336.8018426576266Q861.5898781217368 342.0153477131148 861.5898781217368 357.3366686925086L861.5898781217368 357.3366686925086Q861.5898781217368 364.6994146076062 864.6541423176154 371.3599333111482Q867.7184065134943 378.02045201469025 874.2938067671507 378.02045201469025Q880.8904866332787 378.02045201469025 884.5718595908274 372.42391393471723Q888.2532325483762 366.8273758547442 888.8490616975748 358.71984350314835ZM879.3583545353392 333.29070659984893L879.3583545353392 333.29070659984893Q876.9111991011305 333.29070659984893 875.5280242904907 335.5037862968725Q874.144849479851 337.716865993896 874.144849479851 340.3342583278758L874.144849479851 340.3342583278758Q874.144849479851 345.9946352452629 878.0602981745851 349.52705091551206Q881.9544672568477 353.03818697328984 887.1679723123359 353.03818697328984L887.1679723123359 353.03818697328984L889.0192985973458 353.03818697328984Q888.7001044102751 345.547763383364 886.4870247132517 339.41923499160646Q884.2526654037567 333.29070659984893 879.3583545353392 333.29070659984893ZM919.9598551307329 344.16458857272426L919.9598551307329 344.16458857272426L928.3865816693994 343.2495652364548Q929.6207991927395 343.2495652364548 930.5358225290088 344.61146043462327Q931.4508458652783 345.9946352452629 931.4508458652783 347.5267673432023Q931.4508458652783 349.05889944114176 930.4507040791234 357.95377745417863Q929.4505622929685 366.8273758547442 929.4505622929685 371.97704207281834Q929.4505622929685 377.10542867842094 930.3868652417093 377.10542867842094L930.3868652417093 377.10542867842094Q932.9829779632175 376.9564713911212 937.5793742570356 370.5938672621786Q942.1757705508539 364.23126313323587 946.6870483947864 354.27240449662986Q951.2196058511904 344.31354586002385 952.2197476373453 344.31354586002385Q953.198609811029 344.31354586002385 953.198609811029 345.547763383364L953.198609811029 345.547763383364Q953.198609811029 349.82496549011137 948.7724504169817 359.16671536504737L948.7724504169817 359.16671536504737Q936.6643509207663 384.9150464554175 928.3865816693994 384.9150464554175L928.3865816693994 384.9150464554175Q922.4070105649416 384.9150464554175 919.3427463690628 382.46789102120874L919.3427463690628 382.46789102120874Q918.2787657454937 381.38263078516843 918.2787657454937 369.1255740016534Q918.2787657454937 356.8685172181383 920.8748784670022 348.14387610487233L920.8748784670022 348.14387610487233Q912.0012800664367 348.14387610487233 908.4688643961874 342.4834991874852L908.4688643961874 342.4834991874852Q906.6388177236488 339.56819227890605 906.6388177236488 335.8868193213573Q906.6388177236488 332.2054463638085 908.170949821588 329.46037635500045Q909.7030819195274 326.694026733721 912.533270378221 326.694026733721Q915.3634588369148 326.694026733721 917.7467754337092 329.67317247971425Q920.1088124180326 332.6735978381789 920.1088124180326 336.3549707957277Q920.1088124180326 340.01506414080507 917.959571558423 343.69643709835384L917.959571558423 343.69643709835384Q918.5766803200931 344.16458857272426 919.9598551307329 344.16458857272426ZM980.0109215249681 359.16671536504737L980.0109215249681 359.16671536504737Q967.9241016412241 384.9150464554175 959.5612139399716 384.9150464554175Q951.2196058511904 384.9150464554175 949.7513125906653 382.91476288310776Q948.3042989426115 380.9357589232694 948.3042989426115 369.7426827633234Q948.3042989426115 358.57088621584876 950.4535398022208 337.4189514192967L950.4535398022208 337.4189514192967Q942.7928793125238 335.8868193213573 942.3247278381534 331.1414657402395L942.3247278381534 331.1414657402395Q942.3247278381534 328.69431030603073 945.537949321332 328.69431030603073Q948.7724504169817 328.69431030603073 951.2196058511904 329.90724821689946L951.2196058511904 329.90724821689946Q952.6027806618301 318.8844089567244 954.432827334369 307.5423755094787L954.432827334369 307.5423755094787Q954.9009788087392 304.62706860089963 957.3481342429479 302.03095587939123Q959.7952896771567 299.4135635454114 962.0934878240657 299.4135635454114L962.0934878240657 299.4135635454114Q964.0937713963756 299.4135635454114 964.0937713963756 305.71232883694006L964.0937713963756 305.71232883694006Q964.0937713963756 308.6063561330477 961.9445305367663 332.5246405508792L961.9445305367663 332.5246405508792Q966.0727753562139 331.7585745019095 971.0522046745168 329.46037635500045Q976.0316339928199 327.1621782080914 976.9466573290892 327.1621782080914L976.9466573290892 327.1621782080914Q979.7130069503687 327.1621782080914 979.7130069503687 328.84326759333044L979.7130069503687 328.84326759333044Q979.8619642376684 330.37539969126976 974.0526300329816 333.0566308626637Q968.2220162158233 335.7378620340577 961.4763790623958 337.1210368446973L961.4763790623958 337.1210368446973Q959.6463323898572 359.4859095521181 959.6463323898572 370.9769002866634L959.6463323898572 370.9769002866634Q959.6463323898572 377.10542867842094 961.4763790623958 377.10542867842094L961.4763790623958 377.10542867842094Q964.2427286836753 376.9564713911212 968.8391249774934 370.6577060995927Q973.4355212713115 364.3802204205356 977.9467991152442 354.35752294651536Q982.4793565716482 344.31354586002385 983.4582187453316 344.31354586002385Q984.4583605314865 344.31354586002385 984.4583605314865 345.547763383364L984.4583605314865 345.547763383364Q984.4583605314865 349.82496549011137 980.0109215249681 359.16671536504737ZM999.3328096489813 351.8252490624211L999.3328096489813 351.8252490624211Q1007.5892992878769 349.82496549011137 1013.1858373678499 346.7607012942326Q1018.7823754478229 343.69643709835384 1019.0802900224223 343.69643709835384L1019.0802900224223 343.69643709835384Q1020.0165929711629 343.69643709835384 1020.0165929711629 345.2285691962933Q1020.0165929711629 346.7607012942326 1016.9523287752843 349.05889944114176L1016.9523287752843 349.05889944114176Q1010.504606196456 353.80425302225956 1000.8649417469207 357.18771140520903L1000.8649417469207 357.18771140520903Q1004.8442292790689 372.36007509730314 1004.8442292790689 389.362485461936L1004.8442292790689 389.362485461936Q1004.8442292790689 403.5985462052894 1001.6310077958904 416.62166903777415L1001.6310077958904 416.62166903777415Q999.7796815108804 423.9844149528717 995.8855124286176 428.5808112466899Q991.9700637338838 433.177207540508 986.3096868164967 433.177207540508L986.3096868164967 433.177207540508Q981.3940963356079 433.177207540508 979.564049663069 428.8787258212892L979.564049663069 428.8787258212892Q977.26585151616 423.8354576655721 976.9466573290892 419.2390613717539L976.9466573290892 419.2390613717539Q976.4997854671903 412.02527274395607 976.4997854671903 395.7889284282928Q976.4997854671903 379.5525841126297 978.9469409013991 356.5706026435389L978.9469409013991 356.5706026435389Q973.4355212713115 352.5913151113908 973.4355212713115 346.8458197441181Q973.4355212713115 341.1003243768455 975.8826767055202 337.95094173108123Q978.329832139729 334.82283869778826 982.0112050972778 333.88653574904754L982.0112050972778 333.88653574904754Q984.1604459568871 320.56549834196346 986.224568366611 310.9045542799568Q988.288690776335 301.26488983042157 992.5871724955539 295.20020027607814Q996.8643746023013 289.1567903342061 1001.1628563215202 289.1567903342061L1001.1628563215202 289.1567903342061Q1006.0571671899374 289.1567903342061 1006.0571671899374 300.0306723070815L1006.0571671899374 300.0306723070815Q1006.0571671899374 317.2033195714854 993.3532385445235 338.65316894263674L993.3532385445235 338.65316894263674Q996.5664600277019 343.2495652364548 999.3328096489813 351.8252490624211ZM988.6078849634057 359.4859095521181L988.6078849634057 359.4859095521181Q987.224710152766 378.31836658928967 987.224710152766 402.76864131890557Q987.224710152766 427.1976364360502 989.8208228742744 427.1976364360502L989.8208228742744 427.1976364360502Q994.4172191680925 427.1976364360502 997.4814833639712 415.17465538972033Q1000.54574755985 403.1516743433905 1000.54574755985 388.21338638848147Q1000.54574755985 373.27509843357245 997.183568789372 358.25169202877805L997.183568789372 358.25169202877805Q992.5871724955539 359.4859095521181 988.6078849634057 359.4859095521181ZM990.9060831103147 336.5039280830273L990.9060831103147 336.5039280830273Q995.3322425043618 329.14118216792974 999.0136154619106 319.11848469390964Q1002.6949884194594 309.0745076074181 1002.6949884194594 302.3288704539906Q1002.6949884194594 295.583233300563 1001.3118136088196 295.583233300563L1001.3118136088196 295.583233300563Q998.8646581746109 295.583233300563 996.0344697159173 306.776309460509Q993.2042812572238 317.9693856204551 990.9060831103147 336.5039280830273ZM990.9060831103147 342.6324564747848L990.9060831103147 342.6324564747848L989.9697801615741 344.16458857272426L989.2037141126043 351.9742063497208Q991.2039976849142 352.5913151113908 992.821248232739 352.5913151113908Q994.4172191680925 352.5913151113908 995.5024794041328 352.4423578240911L995.5024794041328 352.4423578240911Q993.5021958318232 346.4627867196333 990.9060831103147 342.6324564747848ZM981.3940963356079 337.716865993896L981.3940963356079 337.716865993896Q979.0958981886986 338.48293204286574 979.0958981886986 341.2492816641451Q979.0958981886986 344.01563128542455 980.3301157120388 345.9946352452629L980.3301157120388 345.9946352452629Q980.9472244737087 340.4832156151755 981.3940963356079 337.716865993896ZM1059.234918755917 350.9102257261518L1059.234918755917 350.9102257261518Q1065.3634471476744 348.90994215384205 1067.7254841319977 347.4629285057882Q1070.1088007287926 345.9946352452629 1071.3430182521324 345.2285691962933L1071.3430182521324 345.2285691962933L1073.173064924671 344.16458857272426Q1073.9391309736407 343.69643709835384 1074.4072824480113 343.69643709835384L1074.4072824480113 343.69643709835384Q1075.62022035888 343.69643709835384 1075.62022035888 345.07961190899357Q1075.62022035888 346.4627867196333 1070.8748667777622 349.91008393999687Q1066.1295131966444 353.35738116036055 1059.0859614686174 356.1024511691686L1059.0859614686174 356.1024511691686Q1058.0007012325768 368.97661671435367 1050.9571495045502 376.9564713911212Q1043.9135977765231 384.9150464554175 1030.8904749440385 384.9150464554175L1030.8904749440385 384.9150464554175Q1021.3784881693314 384.9150464554175 1016.3352200136142 377.33950441560614Q1011.2706722454257 369.7426827633234 1011.2706722454257 359.54974838953217Q1011.2706722454257 349.37809362821235 1017.3353617997691 340.3342583278758Q1023.378771741641 331.2904230275392 1032.8694789038768 331.2904230275392L1032.8694789038768 331.2904230275392Q1037.1679606230955 328.2261588316604 1043.062413277668 328.2261588316604Q1048.9568659322404 328.2261588316604 1054.0214137004286 334.50364451071755Q1059.0859614686174 340.7811301897748 1059.234918755917 350.9102257261518ZM1049.2760601193108 358.71984350314835L1049.2760601193108 358.71984350314835L1043.7646404892234 359.01775807774766Q1036.6998091487253 359.01775807774766 1031.8054982803078 354.8043948084144Q1026.9111874118903 350.5910315390811 1026.9111874118903 345.547763383364Q1026.9111874118903 340.4832156151755 1028.5922767971292 336.8018426576266L1028.5922767971292 336.8018426576266Q1021.9955969310013 342.0153477131148 1021.9955969310013 357.3366686925086L1021.9955969310013 357.3366686925086Q1021.9955969310013 364.6994146076062 1025.0598611268802 371.3599333111482Q1028.124125322759 378.02045201469025 1034.720805188887 378.02045201469025Q1041.2962054425434 378.02045201469025 1044.9775784000922 372.42391393471723Q1048.658951357641 366.8273758547442 1049.2760601193108 358.71984350314835ZM1039.7640733446042 333.29070659984893L1039.7640733446042 333.29070659984893Q1037.3169179103952 333.29070659984893 1035.9337430997557 335.5037862968725Q1034.5718479015873 337.716865993896 1034.5718479015873 340.3342583278758L1034.5718479015873 340.3342583278758Q1034.5718479015873 345.9946352452629 1038.4660169838498 349.52705091551206Q1042.381465678584 353.03818697328984 1047.594970734072 353.03818697328984L1047.594970734072 353.03818697328984L1049.4250174066106 353.03818697328984Q1049.1271028320111 345.547763383364 1046.8927435225164 339.41923499160646Q1044.6796638254928 333.29070659984893 1039.7640733446042 333.29070659984893ZM1078.2376126928598 384.9150464554175L1078.2376126928598 384.9150464554175Q1074.85415430991 384.9150464554175 1072.0239658512164 384.0638619565623Q1069.1937773925229 383.23395707017846 1068.576668630853 382.46789102120874L1068.576668630853 382.46789102120874Q1067.0445365329138 380.6165647361987 1067.0445365329138 363.38007863438065Q1067.0445365329138 346.1435925325626 1070.8748667777622 316.5862108098154L1070.8748667777622 316.5862108098154Q1074.0880882609404 292.22105453008487 1085.8982731825563 292.22105453008487L1085.8982731825563 292.22105453008487Q1088.6433431913647 292.22105453008487 1089.8775607147045 295.20020027607814Q1091.0904986255732 298.2006256345428 1091.0904986255732 300.94569564335086L1091.0904986255732 300.94569564335086Q1091.0904986255732 320.86341291656277 1079.0036787418294 345.547763383364L1079.0036787418294 345.547763383364Q1078.5355272674587 358.25169202877805 1078.5355272674587 367.67856035359944Q1078.5355272674587 377.10542867842094 1080.2166166526981 377.10542867842094L1080.2166166526981 377.10542867842094Q1082.8340089866779 376.9564713911212 1087.430405280496 370.5938672621786Q1092.026801574314 364.23126313323587 1096.5380794182465 354.27240449662986Q1101.0493572621795 344.31354586002385 1102.049499048334 344.31354586002385Q1103.0496408344889 344.31354586002385 1103.0496408344889 345.547763383364L1103.0496408344889 345.547763383364Q1103.0496408344889 349.82496549011137 1098.6022018279705 359.16671536504737L1098.6022018279705 359.16671536504737Q1086.4941023317551 384.9150464554175 1078.2376126928598 384.9150464554175ZM1087.2601683807247 302.3288704539906L1087.2601683807247 302.3288704539906Q1087.2601683807247 297.4345595855731 1086.047230469856 297.4345595855731L1086.047230469856 297.4345595855731Q1081.450834176038 297.4345595855731 1079.3015933164288 335.588904746758L1079.3015933164288 335.588904746758Q1087.2601683807247 314.58592723750564 1087.2601683807247 302.3288704539906ZM1099.5172251642398 309.2234648947178L1099.5172251642398 309.2234648947178Q1099.5172251642398 306.4783948859097 1102.432532072819 304.4781113136Q1105.3478389813981 302.4778277412902 1107.6460371283074 302.4778277412902L1107.6460371283074 302.4778277412902Q1111.7742819477548 302.4778277412902 1111.7742819477548 307.2444609348794Q1111.7742819477548 311.9898145159972 1109.3271265135463 315.43711173636086Q1106.8799710793373 318.8844089567244 1102.432532072819 318.8844089567244L1102.432532072819 318.8844089567244Q1099.5172251642398 318.8844089567244 1099.5172251642398 309.2234648947178ZM1103.9646641707582 384.9150464554175L1103.9646641707582 384.9150464554175Q1097.9850930663006 384.9150464554175 1094.9208288704217 382.46789102120874L1094.9208288704217 382.46789102120874Q1093.8568482468527 381.38263078516843 1093.8568482468527 374.8072305315119Q1093.8568482468527 368.21055066538395 1094.8569900330076 352.82539084857603Q1095.8571318191625 337.4189514192967 1096.6231978681321 336.1847338959566Q1097.3892639171017 334.97179598508797 1101.36855144925 331.5883376021385Q1105.3478389813981 328.2261588316604 1107.5609186784218 328.2261588316604Q1109.7952779879165 328.2261588316604 1109.7952779879165 334.05677264881854L1109.7952779879165 334.05677264881854Q1109.7952779879165 335.588904746758 1108.9440934890613 340.01506414080507Q1108.1141886026776 344.46250314732356 1107.028928366637 346.4627867196333L1107.028928366637 346.4627867196333Q1105.0499244067987 351.5060548753504 1105.0499244067987 372.95590424650175L1105.0499244067987 372.95590424650175Q1105.0499244067987 377.10542867842094 1105.964947743068 377.10542867842094L1105.964947743068 377.10542867842094Q1108.5610604645767 376.9564713911212 1113.1574567583948 370.5938672621786Q1117.753853052213 364.23126313323587 1122.2864105086169 354.27240449662986Q1126.7976883525494 344.31354586002385 1127.7978301387043 344.31354586002385Q1128.7979719248592 344.31354586002385 1128.7979719248592 345.547763383364L1128.7979719248592 345.547763383364Q1128.7979719248592 349.82496549011137 1124.3505329183408 359.16671536504737L1124.3505329183408 359.16671536504737Q1112.2424334221255 384.9150464554175 1103.9646641707582 384.9150464554175ZM1168.6334064712833 350.9102257261518L1168.6334064712833 350.9102257261518Q1174.7619348630406 348.90994215384205 1177.123971847364 347.4629285057882Q1179.5072884441583 345.9946352452629 1180.720226355027 345.2285691962933L1180.720226355027 345.2285691962933L1182.5715526400372 344.16458857272426Q1183.3376186890068 343.69643709835384 1183.784490550906 343.69643709835384L1183.784490550906 343.69643709835384Q1185.0187080742458 343.69643709835384 1185.0187080742458 345.07961190899357Q1185.0187080742458 346.4627867196333 1180.273354493128 349.91008393999687Q1175.5280009120102 353.35738116036055 1168.463169571512 356.1024511691686L1168.463169571512 356.1024511691686Q1167.399188947943 368.97661671435367 1160.355637219916 376.9564713911212Q1153.3120854918893 384.9150464554175 1140.2889626594047 384.9150464554175L1140.2889626594047 384.9150464554175Q1130.7769758846975 384.9150464554175 1125.7337077289803 377.33950441560614Q1120.669159960792 369.7426827633234 1120.669159960792 359.54974838953217Q1120.669159960792 349.37809362821235 1126.7125699026637 340.3342583278758Q1132.7772594570074 331.2904230275392 1142.267966619243 331.2904230275392L1142.267966619243 331.2904230275392Q1146.5664483384617 328.2261588316604 1152.460900993034 328.2261588316604Q1158.3553536476065 328.2261588316604 1163.4199014157948 334.50364451071755Q1168.463169571512 340.7811301897748 1168.6334064712833 350.9102257261518ZM1158.674547834677 358.71984350314835L1158.674547834677 358.71984350314835L1153.141848592118 359.01775807774766Q1146.0982968640915 359.01775807774766 1141.203985995674 354.8043948084144Q1136.288395514785 350.5910315390811 1136.288395514785 345.547763383364Q1136.288395514785 340.4832156151755 1137.9907645124954 336.8018426576266L1137.9907645124954 336.8018426576266Q1131.3940846463674 342.0153477131148 1131.3940846463674 357.3366686925086L1131.3940846463674 357.3366686925086Q1131.3940846463674 364.6994146076062 1134.4583488422463 371.3599333111482Q1137.5226130381252 378.02045201469025 1144.1192929042531 378.02045201469025Q1150.6946931579096 378.02045201469025 1154.3760661154583 372.42391393471723Q1158.0574390730071 366.8273758547442 1158.674547834677 358.71984350314835ZM1149.1625610599704 333.29070659984893L1149.1625610599704 333.29070659984893Q1146.7154056257614 333.29070659984893 1145.3322308151219 335.5037862968725Q1143.949056004482 337.716865993896 1143.949056004482 340.3342583278758L1143.949056004482 340.3342583278758Q1143.949056004482 345.9946352452629 1147.864504699216 349.52705091551206Q1151.7799533939497 353.03818697328984 1156.9721788369666 353.03818697328984L1156.9721788369666 353.03818697328984L1158.8235051219767 353.03818697328984Q1158.5043109349062 345.547763383364 1156.2912312378826 339.41923499160646Q1154.078151540859 333.29070659984893 1149.1625610599704 333.29070659984893Z " fill="#3c1a5b" transform="matrix(0.7383849487727415,0,0,0.7383849487727415,0,35.52729223694837)"/></g></svg>